#!OML:ASF I:\Random Stuff\random\construction\7_22_03\Session 2\subj1.ASF
:FULLY-SPECIFIED
:DEGREES
775
root -10.5352 17.6561 -5.88497 -373.567 75.4467 -392.95
lowerback 18.8998 2.33198 -0.468208
upperback 8.45089 3.32978 -5.27233
thorax -1.14946 1.97587 -6.00438
lowerneck -12.3598 0.55044 4.67009
upperneck 42.6516 4.31274 -5.16863
head 18.2834 2.29811 -2.34148
rclavicle 1.90833e-014 1.59028e-015
rhumerus 3.8198 13.398 -92.2554
rradius 78.1619
rwrist -22.1676
rhand -41.8266 11.9045
rfingers 7.12502
rthumb -14.7281 -17.5523
lclavicle 1.90833e-014 1.59028e-015
lhumerus 33.8306 -43.4505 57.6861
lradius 38.8441
lwrist -10.6545
lhand -39.1631 86.1329
lfingers 7.12502
lthumb -12.1609 -475.759
rfemur -23.2033 7.28065 20.4002
rtibia 5.14669
rfoot -2.04421 -4.38884
rtoes -16.674
lfemur -33.2133 -0.0756878 -5.30548
ltibia 31.6281
lfoot -17.5512 9.39576
ltoes -25.1493
776
root -10.5253 17.6595 -5.86699 -372.892 75.3201 -392.299
lowerback 18.8064 2.62504 -0.738409
upperback 8.29183 3.65021 -5.34091
thorax -1.25129 2.12227 -5.98465
lowerneck -12.4112 0.372179 4.93012
upperneck 43.0485 3.93746 -4.92847
head 18.5068 2.23807 -2.35252
rclavicle 5.56597e-014 -3.33958e-014
rhumerus 3.26261 12.5931 -92.5208
rradius 78.269
rwrist -22.0113
rhand -41.3388 11.7493
rfingers 7.12502
rthumb -14.2581 -17.7413
lclavicle 5.56597e-014 -3.33958e-014
lhumerus 34.5825 -44.6108 56.7166
lradius 38.6249
lwrist -10.0411
lhand -39.0362 86.1252
lfingers 7.12502
lthumb -12.0385 -475.759
rfemur -23.3696 7.4342 20.3237
rtibia 5.43116
rfoot -2.16735 -4.45592
rtoes -17.0541
lfemur -33.0414 -0.0254209 -5.36468
ltibia 31.4538
lfoot -17.4692 9.51505
ltoes -25.4254
777
root -10.5094 17.6649 -5.8575 -372.051 75.3026 -391.517
lowerback 18.7112 2.77227 -1.04848
upperback 8.12583 3.77412 -5.48293
thorax -1.37693 2.17255 -5.98526
lowerneck -12.3926 0.291731 5.16015
upperneck 43.3602 3.68211 -4.63851
head 18.6703 2.22405 -2.30994
rclavicle -3.81667e-014 1.27222e-014
rhumerus 1.87053 12.7547 -92.561
rradius 79.2084
rwrist -21.5905
rhand -41.5017 11.9109
rfingers 7.12502
rthumb -14.4151 -17.5686
lclavicle -3.81667e-014 1.27222e-014
lhumerus 35.0792 -45.4777 55.9007
lradius 38.128
lwrist -10.3231
lhand -39.3345 86.4058
lfingers 7.12502
lthumb -12.3261 -476.022
rfemur -23.5181 7.46648 20.1295
rtibia 5.62697
rfoot -2.2489 -4.50547
rtoes -17.1461
lfemur -32.9004 -0.24362 -5.47227
ltibia 31.2459
lfoot -17.4246 9.83881
ltoes -25.6945
778
root -10.4857 17.6714 -5.84313 -371.494 75.3578 -390.996
lowerback 18.5676 2.81296 -1.47878
upperback 8.01977 3.74993 -5.5938
thorax -1.43748 2.14917 -5.8494
lowerneck -12.3844 0.306002 5.37901
upperneck 43.5698 3.58027 -4.42327
head 18.791 2.25311 -2.27064
rclavicle 1.27222e-014 -1.43125e-014
rhumerus -0.000918486 13.7348 -92.4801
rradius 80.6977
rwrist -20.9425
rhand -41.5564 12.1052
rfingers 7.12502
rthumb -14.4677 -17.3704
lclavicle 1.27222e-014 -1.43125e-014
lhumerus 34.9886 -45.5848 55.8698
lradius 38.0334
lwrist -9.54585
lhand -39.1703 86.6531
lfingers 7.12502
lthumb -12.1678 -476.279
rfemur -23.4542 7.41961 19.9972
rtibia 5.56979
rfoot -2.28658 -4.51872
rtoes -16.762
lfemur -32.7346 -0.626885 -5.50613
ltibia 31.0469
lfoot -17.406 10.2499
ltoes -26.0256
779
root -10.4553 17.6754 -5.8301 -372.101 75.6114 -391.618
lowerback 18.2694 2.67147 -1.64546
upperback 8.07154 3.56033 -5.63602
thorax -1.25226 2.0561 -5.74055
lowerneck -12.4338 0.382537 5.59847
upperneck 43.6664 3.58369 -4.30958
head 18.87 2.30324 -2.25893
rclavicle 7.95139e-015 4.13472e-014
rhumerus -2.8369 14.9508 -92.4644
rradius 83.5872
rwrist -20.3379
rhand -41.3826 11.6721
rfingers 7.12502
rthumb -14.3003 -17.8155
lclavicle 7.95139e-015 4.13472e-014
lhumerus 34.7687 -45.4491 55.8666
lradius 37.6923
lwrist -10.3014
lhand -39.6887 86.1676
lfingers 7.12502
lthumb -12.6677 -475.763
rfemur -23.1188 7.13434 20.136
rtibia 5.23136
rfoot -2.26452 -4.5199
rtoes -16.4841
lfemur -32.6206 -1.19727 -5.30615
ltibia 30.8902
lfoot -17.4397 10.5221
ltoes -25.8161
780
root -10.4208 17.6785 -5.82032 -373.548 75.9283 -393.028
lowerback 17.784 2.42759 -1.56094
upperback 8.30547 3.30946 -5.65418
thorax -0.766819 1.94701 -5.72015
lowerneck -12.3937 0.50141 5.84191
upperneck 43.5654 3.68988 -4.37169
head 18.813 2.36821 -2.31406
rclavicle -2.06736e-014 6.52014e-014
rhumerus -5.76889 16.0424 -92.5684
rradius 86.8547
rwrist -20.0853
rhand -41.1539 11.0204
rfingers 7.12502
rthumb -14.0799 -18.4826
lclavicle -2.06736e-014 6.52014e-014
lhumerus 34.6082 -44.9529 55.944
lradius 37.7426
lwrist -9.92255
lhand -39.9072 86.472
lfingers 7.12502
lthumb -12.8783 -476.055
rfemur -22.5168 6.74793 20.4519
rtibia 4.61194
rfoot -2.14508 -4.51041
rtoes -16.468
lfemur -32.4982 -1.81829 -4.96224
ltibia 30.8046
lfoot -17.5385 10.6957
ltoes -25.2633
781
root -10.3861 17.6814 -5.81137 -375.006 76.1649 -394.407
lowerback 17.3116 2.20601 -1.44557
upperback 8.56775 3.09384 -5.67828
thorax -0.252384 1.85797 -5.73518
lowerneck -12.3318 0.61062 6.01846
upperneck 43.4317 3.84051 -4.52026
head 18.7348 2.42842 -2.38953
rclavicle -3.33958e-014 6.36111e-014
rhumerus -8.92165 16.8286 -92.8712
rradius 90.273
rwrist -20.4247
rhand -40.935 10.8888
rfingers 7.12502
rthumb -13.869 -18.6288
lclavicle -3.33958e-014 6.36111e-014
lhumerus 34.513 -44.6373 55.8794
lradius 37.4699
lwrist -10.7394
lhand -40.2023 86.2651
lfingers 7.12502
lthumb -13.1628 -475.83
rfemur -21.7622 6.43328 20.7569
rtibia 3.78082
rfoot -1.94023 -4.46054
rtoes -16.568
lfemur -32.3526 -2.41669 -4.6196
ltibia 30.8055
lfoot -17.6778 10.9348
ltoes -24.9711
782
root -10.3541 17.6811 -5.80343 -376.398 76.3667 -395.69
lowerback 17.0171 1.97729 -1.3125
upperback 8.75955 2.85339 -5.70678
thorax 0.0926007 1.75374 -5.77854
lowerneck -12.3133 0.727263 6.12062
upperneck 43.3341 4.03943 -4.68669
head 18.6962 2.49442 -2.45133
rclavicle 1.11319e-014 1.27222e-014
rhumerus -12.2218 17.4705 -93.3173
rradius 93.7238
rwrist -21.0762
rhand -40.6114 10.6738
rfingers 7.12502
rthumb -13.5571 -18.8648
lclavicle 1.11319e-014 1.27222e-014
lhumerus 34.1872 -44.1548 56.0866
lradius 37.6677
lwrist -9.96209
lhand -39.6207 85.7839
lfingers 7.12502
lthumb -12.6021 -475.384
rfemur -20.9711 6.14736 21.0264
rtibia 2.86841
rfoot -1.64814 -4.37499
rtoes -16.8988
lfemur -32.2252 -2.95095 -4.32023
ltibia 30.8785
lfoot -17.889 11.1073
ltoes -24.7627
783
root -10.3267 17.6768 -5.79724 -377.693 76.5594 -396.871
lowerback 16.8986 1.72423 -1.18681
upperback 8.8672 2.56056 -5.72036
thorax 0.248407 1.61799 -5.80817
lowerneck -12.2804 0.878396 6.16248
upperneck 43.244 4.31042 -4.8424
head 18.6645 2.58128 -2.48335
rclavicle 2.54444e-014 -7.31528e-014
rhumerus -15.4565 18.1311 -93.8153
rradius 96.9294
rwrist -21.5441
rhand -40.0557 10.1643
rfingers 7.12502
rthumb -13.0215 -19.4093
lclavicle 2.54444e-014 -7.31528e-014
lhumerus 33.7073 -43.7065 56.2968
lradius 37.7577
lwrist -9.7719
lhand -39.4448 85.3986
lfingers 7.12502
lthumb -12.4325 -475.009
rfemur -20.295 5.86515 21.2536
rtibia 2.10824
rfoot -1.40006 -4.30888
rtoes -17.3468
lfemur -32.1324 -3.39762 -4.08297
ltibia 31.0024
lfoot -18.1869 11.1561
ltoes -24.1493
784
root -10.3064 17.6722 -5.79154 -378.87 76.7284 -397.899
lowerback 16.909 1.49225 -1.11195
upperback 8.94697 2.27845 -5.68753
thorax 0.302808 1.48242 -5.76871
lowerneck -12.2743 1.03372 6.18968
upperneck 43.1916 4.60849 -5.02034
head 18.6687 2.67527 -2.51892
rclavicle -1.27222e-014 3.02153e-014
rhumerus -18.3104 18.6038 -94.2794
rradius 99.6849
rwrist -21.5988
rhand -39.4933 9.31017
rfingers 7.12502
rthumb -12.4793 -20.2972
lclavicle -1.27222e-014 3.02153e-014
lhumerus 33.1982 -43.2112 56.6607
lradius 37.7078
lwrist -9.94242
lhand -39.5514 85.0736
lfingers 7.12502
lthumb -12.5353 -474.678
rfemur -19.9455 5.60696 21.457
rtibia 2.00104
rfoot -1.47563 -4.3176
rtoes -17.4955
lfemur -32.0567 -3.62801 -3.93023
ltibia 31.167
lfoot -18.3913 11.0351
ltoes -23.4168
785
root -10.2948 17.6696 -5.7885 -379.872 76.8587 -398.723
lowerback 16.9281 1.32252 -1.1077
upperback 9.06589 2.07158 -5.59054
thorax 0.396204 1.38151 -5.63122
lowerneck -12.3053 1.16605 6.24169
upperneck 43.1507 4.88271 -5.2462
head 18.6922 2.75855 -2.5865
rclavicle -2.38542e-014 -2.8625e-014
rhumerus -20.4995 18.981 -94.6073
rradius 101.808
rwrist -21.7809
rhand -39.5785 8.84338
rfingers 7.12502
rthumb -12.5615 -20.759
lclavicle -2.38542e-014 -2.8625e-014
lhumerus 32.8437 -42.7492 57.0135
lradius 37.6523
lwrist -10.0797
lhand -39.6529 84.7272
lfingers 7.12502
lthumb -12.6332 -474.325
rfemur -19.8946 5.39045 21.6271
rtibia 2.48497
rfoot -1.7958 -4.34671
rtoes -17.3316
lfemur -32.0037 -3.63795 -3.86634
ltibia 31.3704
lfoot -18.4767 10.7778
ltoes -23.0808
786
root -10.2902 17.6645 -5.79186 -380.645 76.9311 -399.325
lowerback 16.9576 1.21774 -1.07044
upperback 9.17421 1.95186 -5.48285
thorax 0.482204 1.3243 -5.51609
lowerneck -12.2743 1.24958 6.25088
upperneck 43.0561 5.05448 -5.39397
head 18.6493 2.80533 -2.62563
rclavicle 3.18055e-014 -3.33958e-014
rhumerus -21.929 19.4587 -94.8765
rradius 103.078
rwrist -22.4907
rhand -39.943 9.92893
rfingers 7.12502
rthumb -12.9128 -19.6516
lclavicle 3.18055e-014 -3.33958e-014
lhumerus 32.6259 -42.5062 57.2141
lradius 37.6802
lwrist -10.1138
lhand -39.6041 84.6208
lfingers 7.12502
lthumb -12.5861 -474.222
rfemur -19.8998 5.23564 21.7444
rtibia 2.97699
rfoot -2.05384 -4.33879
rtoes -17.1891
lfemur -31.9743 -3.4959 -3.87185
ltibia 31.6062
lfoot -18.5724 10.4498
ltoes -23.1379
